<mxfile host="app.diagrams.net" modified="2021-11-11T02:10:16.226Z" agent="5.0 (Windows NT 10.0; Win64; x64) AppleWebKit/537.36 (KHTML, like Gecko) Chrome/95.0.4638.69 Safari/537.36" etag="tO-3unZx2NO7-VaaKnuW" version="15.7.3" type="github">
  <diagram id="0ZG-tTDuFyur7XM8iO_t" name="Page-1">
    <mxGraphModel dx="1011" dy="415" grid="1" gridSize="10" guides="1" tooltips="1" connect="1" arrows="1" fold="1" page="1" pageScale="1" pageWidth="850" pageHeight="1100" math="0" shadow="0">
      <root>
        <mxCell id="0" />
        <mxCell id="1" parent="0" />
        <mxCell id="npbSc2TO1pak18L3sSqS-1" value="" style="rounded=0;whiteSpace=wrap;html=1;" vertex="1" parent="1">
          <mxGeometry x="40" y="40" width="760" height="360" as="geometry" />
        </mxCell>
        <mxCell id="npbSc2TO1pak18L3sSqS-2" value="Enter City" style="rounded=0;whiteSpace=wrap;html=1;fillColor=#f8cecc;strokeColor=#b85450;align=center;" vertex="1" parent="1">
          <mxGeometry x="365" y="210" width="120" height="50" as="geometry" />
        </mxCell>
        <mxCell id="npbSc2TO1pak18L3sSqS-4" value="Search" style="rounded=1;whiteSpace=wrap;html=1;align=center;fillColor=#d5e8d4;strokeColor=#82b366;" vertex="1" parent="1">
          <mxGeometry x="365" y="270" width="120" height="30" as="geometry" />
        </mxCell>
        <mxCell id="npbSc2TO1pak18L3sSqS-10" value="" style="edgeStyle=orthogonalEdgeStyle;rounded=0;orthogonalLoop=1;jettySize=auto;html=1;fontSize=35;" edge="1" parent="1" source="npbSc2TO1pak18L3sSqS-5" target="npbSc2TO1pak18L3sSqS-1">
          <mxGeometry relative="1" as="geometry" />
        </mxCell>
        <mxCell id="npbSc2TO1pak18L3sSqS-5" value="" style="rounded=0;whiteSpace=wrap;html=1;align=center;" vertex="1" parent="1">
          <mxGeometry x="40" y="480" width="760" height="360" as="geometry" />
        </mxCell>
        <mxCell id="npbSc2TO1pak18L3sSqS-6" value="&lt;font style=&quot;font-size: 35px&quot;&gt;Map&lt;/font&gt;" style="rounded=1;whiteSpace=wrap;html=1;align=center;" vertex="1" parent="1">
          <mxGeometry x="70" y="500" width="400" height="250" as="geometry" />
        </mxCell>
        <mxCell id="npbSc2TO1pak18L3sSqS-7" value="Weather" style="rounded=1;whiteSpace=wrap;html=1;fontSize=35;align=center;" vertex="1" parent="1">
          <mxGeometry x="520" y="500" width="260" height="140" as="geometry" />
        </mxCell>
        <mxCell id="npbSc2TO1pak18L3sSqS-8" value="Hike Spot" style="rounded=0;whiteSpace=wrap;html=1;fontSize=35;align=center;" vertex="1" parent="1">
          <mxGeometry x="180" y="50" width="510" height="60" as="geometry" />
        </mxCell>
        <mxCell id="npbSc2TO1pak18L3sSqS-9" style="edgeStyle=orthogonalEdgeStyle;rounded=0;orthogonalLoop=1;jettySize=auto;html=1;exitX=0.5;exitY=1;exitDx=0;exitDy=0;fontSize=35;" edge="1" parent="1" source="npbSc2TO1pak18L3sSqS-1" target="npbSc2TO1pak18L3sSqS-1">
          <mxGeometry relative="1" as="geometry" />
        </mxCell>
      </root>
    </mxGraphModel>
  </diagram>
</mxfile>
